# xmcd
#
# Track frame offsets:
#	150
#	18285
#	34711
#	51974
#	70226
#	86360
#	104536
#	122191
#	139436
#	157632
#	173774
#	188576
#
# Disc length: 2782 seconds
#
# Revision: 1
# Processed by: cddbd v1.5.1PL2 Copyright (c) Steve Scherf et al.
# Submitted via: audiograbber 1.83.01
#
DISCID=970adc0c
DTITLE=Terri Clark - How I Feel
DYEAR=1900
DGENRE=Country
TTITLE0=I'm Alright
TTITLE1=Now That I've Find You
TTITLE2=Every Time I Cry
TTITLE3=That's How I Feel
TTITLE4=You're Easy On The Eyes
TTITLE5=Getting Even With The Blues
TTITLE6=Till I Get There
TTITLE7=Not Getting Over You
TTITLE8=This Ole heart
TTITLE9=Cure For The Common Heartache
TTITLE10=Me Not Loving You
TTITLE11=Unsung Hero
EXTD=
EXTT0=
EXTT1=
EXTT2=
EXTT3=
EXTT4=
EXTT5=
EXTT6=
EXTT7=
EXTT8=
EXTT9=
EXTT10=
EXTT11=
PLAYORDER=
